<?xml version="1.0" encoding="UTF-8"?> <svg xmlns="http://www.w3.org/2000/svg" xmlns:xlink="http://www.w3.org/1999/xlink" viewBox="0 0 192 192" width="24px" height="24px"> <g fill="none" fill-rule="nonzero" stroke="none" stroke-width="1" stroke-linecap="butt" stroke-linejoin="miter" stroke-miterlimit="10" stroke-dasharray="" stroke-dashoffset="0" font-family="none" font-weight="none" font-size="none" text-anchor="none" style="mix-blend-mode: normal"> <path d="M0,192v-192h192v192z" fill="none"></path> <g fill="#374075"> <path d="M88,0v24h16v-24zM33.78125,22.46875l-11.3125,11.3125l16.96875,16.96875l11.3125,-11.3125zM158.21875,22.46875l-16.96875,16.96875l11.3125,11.3125l16.96875,-16.96875zM96,40c-30.92795,0 -56,25.07205 -56,56c0,30.92795 25.07205,56 56,56c30.92795,0 56,-25.07205 56,-56c0,-30.92795 -25.07205,-56 -56,-56zM0,88v16h24v-16zM168,88v16h24v-16zM39.4375,141.25l-16.96875,16.96875l11.3125,11.3125l16.96875,-16.96875zM152.5625,141.25l-11.3125,11.3125l16.96875,16.96875l11.3125,-11.3125zM88,168v24h16v-24z"></path> </g> </g> </svg> 