<?xml version="1.0" encoding="UTF-8"?> <svg xmlns="http://www.w3.org/2000/svg" xmlns:xlink="http://www.w3.org/1999/xlink" viewBox="0 0 192 192" width="104px" height="104px"> <g fill="none" fill-rule="nonzero" stroke="none" stroke-width="1" stroke-linecap="butt" stroke-linejoin="miter" stroke-miterlimit="10" stroke-dasharray="" stroke-dashoffset="0" font-family="none" font-weight="none" font-size="none" text-anchor="none" style="mix-blend-mode: normal"> <path d="M0,192v-192h192v192z" fill="none"></path> <g fill="#374075"> <g id="surface1"> <path d="M51.69231,0c-16.32692,0 -30.43269,6.77885 -39.23077,17.76923c-8.79808,10.99038 -12.46154,25.24039 -12.46154,40.61538v22.84615h22.15385v-22.84615c0,-11.65385 2.88462,-20.82692 7.61538,-26.76923c4.73077,-5.9423 11.16346,-9.46154 21.92308,-9.46154c10.78847,0 17.19231,3.31731 21.92308,9.23077c4.73077,5.91346 7.61538,15.20192 7.61538,27v8.07692h22.15385v-8.07692c0,-15.46154 -3.89423,-29.85577 -12.69231,-40.84615c-8.79808,-10.99038 -22.70192,-17.53846 -39,-17.53846zM66.46154,73.84615c-12.23077,0 -22.15385,9.92308 -22.15385,22.15385v73.84615c0,12.23077 9.92308,22.15385 22.15385,22.15385h103.38462c12.23077,0 22.15385,-9.92308 22.15385,-22.15385v-73.84615c0,-12.23077 -9.92308,-22.15385 -22.15385,-22.15385zM118.15385,110.76923c8.16346,0 14.76923,6.60577 14.76923,14.76923c0,5.45192 -2.97116,10.125 -7.38462,12.69231v16.84615c0,4.06731 -3.31731,7.38462 -7.38462,7.38462c-4.06731,0 -7.38462,-3.31731 -7.38462,-7.38462v-16.84615c-4.41346,-2.56731 -7.38462,-7.24039 -7.38462,-12.69231c0,-8.16346 6.60577,-14.76923 14.76923,-14.76923z"></path> </g> </g> </g> </svg> 