<?xml version="1.0" encoding="UTF-8"?> <svg xmlns="http://www.w3.org/2000/svg" xmlns:xlink="http://www.w3.org/1999/xlink" viewBox="0 0 192 192" width="24px" height="24px"> <g fill="none" fill-rule="nonzero" stroke="none" stroke-width="1" stroke-linecap="butt" stroke-linejoin="miter" stroke-miterlimit="10" stroke-dasharray="" stroke-dashoffset="0" font-family="none" font-weight="none" font-size="none" text-anchor="none" style="mix-blend-mode: normal"> <path d="M0,192v-192h192v192z" fill="none"></path> <g fill="#374075"> <path d="M56,40c-30.928,0 -56,25.072 -56,56c0,30.928 25.072,56 56,56c25.36535,0 46.76937,-16.87209 53.65625,-40h34.34375v24h32v-24h16v-32h-82.34375c-6.88688,-23.12791 -28.2909,-40 -53.65625,-40zM56,72c13.256,0 24,10.744 24,24c0,13.256 -10.744,24 -24,24c-13.256,0 -24,-10.744 -24,-24c0,-13.256 10.744,-24 24,-24z"></path> </g> </g> </svg> 