<?xml version="1.0" encoding="UTF-8"?> <svg xmlns="http://www.w3.org/2000/svg" xmlns:xlink="http://www.w3.org/1999/xlink" id="Layer_1" x="0px" y="0px" viewBox="0 0 511 511" style="enable-background:new 0 0 511 511;" xml:space="preserve" width="512px" height="512px" class=""><g><g> <polyline style="fill:#CCD7E8" points="400,471 400,503 112,503 112,471 " data-original="#8CA4B8" class="" data-old_color="#CED8E8"></polyline> <rect x="80" y="39" style="fill:#0090FF" width="352" height="400" data-original="#FF795C" class="" data-old_color="#FF795C"></rect> <rect x="408" y="39" style="fill:#0965DE" width="24" height="96" data-original="#FF3E64" class="" data-old_color="#0965de"></rect> <polyline style="fill:#E4E8EF" points="416,439 416,471 96,471 96,439 " data-original="#A8BBC9" class="" data-old_color="#F3F6FB"></polyline> <rect x="80" y="135" style="fill:#F3F6FB" width="352" height="304" data-original="#E2E8ED" class="" data-old_color="#f3f6fb"></rect> <rect x="408" y="135" style="fill:#C5D1DB;" width="24" height="304" data-original="#C5D1DB" class=""></rect> <g> <g> <g> <rect x="120" y="7" style="fill:#CCD7E8" width="32" height="64" data-original="#8CA4B8" class="" data-old_color="#CED8E8"></rect> </g> <g> <rect x="200" y="7" style="fill:#CCD7E8" width="32" height="64" data-original="#8CA4B8" class="" data-old_color="#CED8E8"></rect> </g> <g> <rect x="280" y="7" style="fill:#CCD7E8" width="32" height="64" data-original="#8CA4B8" class="" data-old_color="#CED8E8"></rect> </g> <g> <rect x="360" y="7" style="fill:#CCD7E8" width="32" height="64" data-original="#8CA4B8" class="" data-old_color="#CED8E8"></rect> </g> </g> <g> <g> <rect x="120" y="47" style="fill:#4B6276;" width="32" height="24" data-original="#4B6276"></rect> </g> <g> <rect x="200" y="47" style="fill:#4B6276;" width="32" height="24" data-original="#4B6276"></rect> </g> <g> <rect x="280" y="47" style="fill:#4B6276;" width="32" height="24" data-original="#4B6276"></rect> </g> <g> <rect x="360" y="47" style="fill:#4B6276;" width="32" height="24" data-original="#4B6276"></rect> </g> </g> </g> <g> <g> <rect x="184" y="95.5" style="fill:#FFFFFF;" width="80" height="15" data-original="#FFFFFF"></rect> </g> <g> <rect x="280" y="95.5" style="fill:#FFFFFF;" width="16" height="15" data-original="#FFFFFF"></rect> </g> <g> <rect x="312" y="95.5" style="fill:#FFFFFF;" width="16" height="15" data-original="#FFFFFF"></rect> </g> </g> <polygon style="fill:#0090FF" points="255.996,337.822 194.831,383 186.665,383 212.43,305.646 152,261.014 152,255 229.3,255 250.617,191 261.35,191 282.678,255 360,255 360,261.003 299.556,305.648 325.334,383 317.165,383 " data-original="#FFE480" class="active-path" data-old_color="#A800FF"></polygon> <g> <path d="M439,32h-40V0h-47v32h-33V0h-47v32h-33V0h-47v32h-33V0h-47v32H72v111h352v289H87V159H72v288h16v32h16v32h303v-32h16v-32 h16V32z M392,496H119v-17h273V496z M408,464H103v-17h305V464z M367,15h17v49h-17V15z M287,15h17v49h-17V15z M207,15h17v49h-17V15z M127,15h17v49h-17V15z M87,128V47h25v32h47V47h33v32h47V47h33v32h47V47h33v32h47V47h25v81H87z" data-original="#000000" class="" style="fill:#374075" data-old_color="#000000"></path> <polygon points="407,287 407,160 360,160 360,175 392,175 392,287 " data-original="#000000" class="" style="fill:#374075" data-old_color="#000000"></polygon> <path d="M266.756,184h-21.547l-21.317,64H144v16.798l59.343,43.895L176.262,391h21.039l58.695-43.354L314.695,391h21.044 l-27.595-82.306L367,264.788V248h-78.915L266.756,184z M290.719,303.101l22.674,67.914l-57.397-42.455l-57.392,42.359 l22.663-67.806L166.636,263h68.071l21.277-63.88L277.272,263h68.078L290.719,303.101z" data-original="#000000" class="" style="fill:#374075" data-old_color="#000000"></path> </g> </g></g> </svg> 