<?xml version="1.0" encoding="UTF-8"?> <svg xmlns="http://www.w3.org/2000/svg" height="512px" viewBox="0 0 480 480" width="512px" class=""> <g> <path d="m418 286.71875c-4.253906 16.15625-10.6875 31.660156-19.121094 46.082031l33.441406 42.960938-56.558593 56.558593-42.960938-33.441406c-14.421875 8.433594-29.925781 14.867188-46.082031 19.121094l-6.71875 54h-80l-6.71875-54c-16.15625-4.253906-31.660156-10.6875-46.082031-19.121094l-42.960938 33.441406-56.558593-56.558593 33.441406-42.960938c-8.433594-14.421875-14.867188-29.925781-19.121094-46.082031l-54-6.71875v-80l54-6.71875c4.253906-16.15625 10.6875-31.660156 19.121094-46.082031l-33.441406-42.960938 56.558593-56.558593 42.960938 33.441406c14.421875-8.433594 29.925781-14.867188 46.082031-19.121094l6.71875-54h80l6.71875 54c16.15625 4.253906 31.660156 10.6875 46.082031 19.121094l42.960938-33.441406 56.558593 56.558593-33.441406 42.960938c8.433594 14.421875 14.867188 29.925781 19.121094 46.082031l54 6.71875v80zm0 0" fill="#ff9811" data-original="#FF9811" class="" style="fill:#F3F6FB" data-old_color="#f3f6fb"></path> <path d="m328 208 16 24v40l-24 24v16l-32 8-8 24h-24l-16-16v-176l16-16h24l8 24h24l16 16zm0 0" fill="#ed539d" data-original="#ED539D" class="active-path" style="fill:#03A3FF" data-old_color="#03a3ff"></path> <path d="m192 160 8-24h24l16 16v176l-16 16h-24l-8-24-32-8v-16l-24-24v-40l16-24v-32l16-16zm0 0" fill="#ea348b" data-original="#EA348B" class="" style="fill:#0965DE" data-old_color="#0965de"></path> <path d="m472.992188 192.0625-48.71875-6.085938c-3.875-13.214843-9.171876-25.96875-15.792969-38.039062l30.167969-38.792969c2.476562-3.183593 2.195312-7.714843-.65625-10.570312l-56.566407-56.566407c-2.855469-2.855468-7.390625-3.136718-10.578125-.65625l-38.792968 30.167969c-12.070313-6.617187-24.820313-11.914062-38.03125-15.792969l-6.085938-48.71875c-.5-4.003906-3.902344-7.007812-7.9375-7.007812h-80c-4.035156 0-7.4375 3.003906-7.9375 7.007812l-6.085938 48.71875c-13.210937 3.878907-25.960937 9.175782-38.03125 15.792969l-38.792968-30.167969c-3.1875-2.480468-7.722656-2.199218-10.578125.65625l-56.566407 56.566407c-2.851562 2.855469-3.132812 7.386719-.65625 10.570312l30.167969 38.792969c-6.621093 12.070312-11.917969 24.824219-15.792969 38.039062l-48.71875 6.085938c-4.003906.5-7.007812 3.902344-7.007812 7.9375v80c0 4.035156 3.003906 7.4375 7.007812 7.9375l48.71875 6.085938c3.875 13.210937 9.171876 25.964843 15.792969 38.03125l-30.167969 38.800781c-2.476562 3.183593-2.195312 7.714843.65625 10.570312l56.566407 56.566407c2.855469 2.855468 7.390625 3.136718 10.578125.65625l38.792968-30.167969c12.070313 6.617187 24.820313 11.914062 38.03125 15.792969l6.085938 48.71875c.5 4.003906 3.902344 7.007812 7.9375 7.007812h80c4.035156 0 7.4375-3.003906 7.9375-7.007812l6.085938-48.71875c13.210937-3.878907 25.960937-9.175782 38.03125-15.792969l38.792968 30.167969c3.1875 2.480468 7.722656 2.199218 10.578125-.65625l56.566407-56.566407c2.851562-2.855469 3.132812-7.386719.65625-10.570312l-30.167969-38.800781c6.621093-12.066407 11.917969-24.820313 15.792969-38.03125l48.71875-6.085938c4.003906-.5 7.007812-3.902344 7.007812-7.9375v-80c0-4.035156-3.003906-7.4375-7.007812-7.9375zm-8.992188 80.875-47 5.878906c-3.246094.402344-5.917969 2.742188-6.753906 5.902344-4.042969 15.433594-10.183594 30.238281-18.246094 44-1.652344 2.824219-1.417969 6.371094.59375 8.953125l29.117188 37.433594-46.605469 46.574219-37.433594-29.113282c-2.585937-2-6.132813-2.226562-8.953125-.566406-13.765625 8.0625-28.570312 14.207031-44 18.265625-3.164062.828125-5.507812 3.503906-5.910156 6.75l-5.871094 46.984375h-65.875l-5.878906-47c-.402344-3.25-2.746094-5.921875-5.910156-6.753906-15.429688-4.050782-30.230469-10.1875-43.992188-18.246094-2.824219-1.652344-6.371094-1.421875-8.953125.585938l-37.433594 29.09375-46.582031-46.574219 29.121094-37.433594c2-2.585937 2.226562-6.132813.566406-8.953125-8.070312-13.761719-14.21875-28.566406-18.273438-44-.832031-3.160156-3.503906-5.5-6.75-5.902344l-46.976562-5.878906v-65.875l47-5.878906c3.246094-.402344 5.917969-2.742188 6.753906-5.902344 4.046875-15.433594 10.183594-30.234375 18.246094-44 1.652344-2.824219 1.417969-6.371094-.59375-8.953125l-29.117188-37.433594 46.605469-46.574219 37.433594 29.113282c2.585937 2 6.132813 2.226562 8.953125.566406 13.765625-8.0625 28.570312-14.207031 44-18.265625 3.164062-.828125 5.507812-3.503906 5.910156-6.75l5.871094-46.984375h65.875l5.878906 47c.402344 3.25 2.746094 5.921875 5.910156 6.753906 15.429688 4.050782 30.230469 10.1875 43.992188 18.246094 2.824219 1.652344 6.371094 1.421875 8.953125-.585938l37.433594-29.09375 46.582031 46.574219-29.121094 37.433594c-2 2.585937-2.226562 6.132813-.566406 8.953125 8.070312 13.761719 14.21875 28.566406 18.273438 44 .832031 3.160156 3.503906 5.5 6.75 5.902344l46.976562 5.878906zm0 0" data-original="#000000" class="" style="fill:#374075" data-old_color="#000000"></path> <path d="m352 272v-40c-.003906-1.578125-.46875-3.125-1.34375-4.441406l-14.65625-21.957032v-29.601562c0-2.121094-.84375-4.15625-2.34375-5.65625l-16-16c-1.5-1.5-3.535156-2.34375-5.65625-2.34375h-18.230469l-6.183593-18.527344c-1.089844-3.265625-4.144532-5.46875-7.585938-5.472656h-24c-2.121094 0-4.15625.84375-5.65625 2.34375l-10.34375 10.34375-10.34375-10.34375c-1.5-1.5-3.535156-2.34375-5.65625-2.34375h-24c-3.441406.003906-6.496094 2.207031-7.585938 5.472656l-6.183593 18.527344h-18.230469c-2.121094 0-4.15625.84375-5.65625 2.34375l-16 16c-1.5 1.5-2.34375 3.535156-2.34375 5.65625v29.601562l-14.65625 21.984376c-.871094 1.308593-1.335938 2.84375-1.34375 4.414062v40c0 2.121094.84375 4.15625 2.34375 5.65625l21.65625 21.65625v12.6875c0 3.671875 2.5 6.871094 6.0625 7.761719l27.738281 6.933593 6.613281 19.832032c1.089844 3.265625 4.144532 5.46875 7.585938 5.472656h24c2.121094 0 4.15625-.84375 5.65625-2.34375l10.34375-10.34375 10.34375 10.34375c1.5 1.5 3.535156 2.34375 5.65625 2.34375h24c3.441406-.003906 6.496094-2.207031 7.585938-5.472656l6.613281-19.832032 27.738281-6.933593c3.5625-.890625 6.0625-4.089844 6.0625-7.761719v-12.6875l21.65625-21.65625c1.5-1.5 2.34375-3.535156 2.34375-5.65625zm-131.3125 64h-14.917969l-4.617187-13.839844 12.503906-12.503906c1.5-1.5 2.34375-3.535156 2.34375-5.65625v-8h-16v4.6875l-10.457031 10.457031-21.542969-5.390625v-41.753906h-16v12.6875l-8-8v-34.289062l9.238281-13.863282 6.761719 6.753906v4.710938h16v-8c0-2.121094-.84375-4.15625-2.34375-5.65625l-13.65625-13.65625v-25.375l11.3125-11.3125h17.375l11.3125 11.3125v4.6875h16v-8c0-2.121094-.84375-4.15625-2.34375-5.65625l-12.503906-12.503906 4.617187-13.839844h14.917969l11.3125 11.3125v169.375zm115.3125-67.3125-8 8v-12.6875h-16v41.753906l-21.542969 5.390625-10.457031-10.457031v-4.6875h-16v8c0 2.121094.84375 4.15625 2.34375 5.65625l12.503906 12.503906-4.617187 13.839844h-14.917969l-11.3125-11.3125v-169.375l11.3125-11.3125h14.917969l4.617187 13.839844-12.503906 12.503906c-1.5 1.5-2.34375 3.535156-2.34375 5.65625v8h16v-4.6875l11.3125-11.3125h17.375l11.3125 11.3125v25.375l-13.65625 13.65625c-1.5 1.5-2.34375 3.535156-2.34375 5.65625v8h16v-4.6875l6.761719-6.753906 9.238281 13.839844zm0 0" data-original="#000000" class="" style="fill:#374075" data-old_color="#000000"></path> <path d="m293.65625 234.34375-13.65625-13.65625v-20.6875h-16v24c0 2.121094.84375 4.15625 2.34375 5.65625l16 16zm0 0" data-original="#000000" class="" style="fill:#374075" data-old_color="#000000"></path> <path d="m285.65625 258.34375-11.3125 11.3125 5.65625 5.65625v12.6875h16v-16c0-2.121094-.84375-4.15625-2.34375-5.65625zm0 0" data-original="#000000" class="" style="fill:#374075" data-old_color="#000000"></path> <path d="m200 220.6875-13.65625 13.65625 11.3125 11.3125 16-16c1.5-1.5 2.34375-3.535156 2.34375-5.65625v-24h-16zm0 0" data-original="#000000" class="" style="fill:#374075" data-old_color="#000000"></path> <path d="m186.34375 266.34375c-1.5 1.5-2.34375 3.535156-2.34375 5.65625v16h16v-12.6875l5.65625-5.65625-11.3125-11.3125zm0 0" data-original="#000000" class="" style="fill:#374075" data-old_color="#000000"></path> <path d="m232 48h16v48h-16zm0 0" data-original="#000000" class="" style="fill:#374075" data-old_color="#000000"></path> <path d="m98.574219 109.886719 11.316406-11.3125 33.941406 33.9375-11.3125 11.316406zm0 0" data-original="#000000" class="" style="fill:#374075" data-old_color="#000000"></path> <path d="m48 232h48v16h-48zm0 0" data-original="#000000" class="" style="fill:#374075" data-old_color="#000000"></path> <path d="m98.578125 370.101562 33.941406-33.941406 11.316407 11.316406-33.941407 33.941407zm0 0" data-original="#000000" class="" style="fill:#374075" data-old_color="#000000"></path> <path d="m232 384h16v48h-16zm0 0" data-original="#000000" class="" style="fill:#374075" data-old_color="#000000"></path> <path d="m336.160156 347.484375 11.3125-11.316406 33.941406 33.941406-11.3125 11.3125zm0 0" data-original="#000000" class="" style="fill:#374075" data-old_color="#000000"></path> <path d="m384 232h48v16h-48zm0 0" data-original="#000000" class="" style="fill:#374075" data-old_color="#000000"></path> <path d="m336.164062 132.523438 33.941407-33.941407 11.3125 11.316407-33.941407 33.941406zm0 0" data-original="#000000" class="" style="fill:#374075" data-old_color="#000000"></path> </g> </svg> 