<svg width="53" height="66" viewBox="0 0 53 66" fill="none" xmlns="http://www.w3.org/2000/svg">
<path d="M15.06 54.6905C14.6051 54.8097 14.199 54.8692 13.8416 54.8692C13.495 54.8692 13.1863 54.8476 12.9156 54.8043C12.6448 54.7609 12.3524 54.6743 12.0383 54.5443C11.735 54.4252 11.448 54.2844 11.1773 54.1219C10.9065 53.9595 10.6357 53.7591 10.365 53.5208C9.86675 53.1201 9.41187 52.6869 9.00031 52.2212C8.59957 51.7555 7.81977 50.8836 6.6609 49.6056C5.50203 48.3167 4.73306 47.4611 4.35399 47.0387C3.97492 46.6163 3.68249 46.3943 3.47671 46.3727V46.2102C4.10488 46.2102 4.52186 46.1994 4.72764 46.1777C4.94425 46.1452 5.1717 46.0965 5.40997 46.0315C5.64824 45.9557 5.84861 45.8582 6.01107 45.7391C6.65007 45.3275 6.96957 44.6452 6.96957 43.6921C6.96957 42.9015 6.79087 42.2679 6.43346 41.7913C6.08688 41.3148 5.59409 41.0711 4.95508 41.0603H2.9406V50.7428C2.9406 51.0136 3.03807 51.2518 3.23302 51.4576C3.4388 51.6634 3.68791 51.7663 3.98033 51.7663H4.17528L4.19153 51.9287H0.633682V51.7663H0.844879C1.11564 51.7663 1.35392 51.6688 1.5597 51.4739C1.76548 51.2789 1.87378 51.0406 1.88461 50.759V41.7426C1.87378 41.461 1.76548 41.2227 1.5597 41.0278C1.36475 40.822 1.12647 40.7191 0.844879 40.7191H0.633682V40.5566H5.02007C5.97316 40.5566 6.73671 40.8274 7.31073 41.3689C7.89559 41.8996 8.18801 42.609 8.18801 43.4971C8.18801 44.3744 7.92266 45.1326 7.39196 45.7716C6.86127 46.3997 6.21143 46.7138 5.44246 46.7138C5.44246 46.7138 5.43704 46.7138 5.42621 46.7138C5.79445 47.1037 6.21143 47.5586 6.67715 48.0785C8.55084 50.1471 9.75303 51.4468 10.2837 51.9775C10.8144 52.5082 11.2801 52.9414 11.6809 53.2772C12.0924 53.6237 12.4553 53.8782 12.7693 54.0407C13.4084 54.3873 14.0419 54.5606 14.6701 54.5606C14.8001 54.5606 14.93 54.5497 15.06 54.5281V54.6905Z" fill="white"/>
<path d="M12.3277 41.97C13.4865 40.8761 14.9866 40.3292 16.8278 40.3292C18.6798 40.3292 20.1852 40.8761 21.3441 41.97C22.503 43.0531 23.0824 44.4773 23.0824 46.2427C23.0824 48.0081 22.503 49.4377 21.3441 50.5316C20.1852 51.6147 18.6798 52.1562 16.8278 52.1562C14.9866 52.1562 13.4865 51.6147 12.3277 50.5316C11.1688 49.4377 10.5894 48.0081 10.5894 46.2427C10.5894 44.4773 11.1688 43.0531 12.3277 41.97ZM13.2049 50.1742C14.1255 51.1706 15.3331 51.6688 16.8278 51.6688C18.3224 51.6688 19.5246 51.1706 20.4344 50.1742C21.3549 49.1778 21.8153 47.8673 21.8153 46.2427C21.8153 44.6181 21.3549 43.3076 20.4344 42.3112C19.5246 41.3148 18.3224 40.8166 16.8278 40.8166C15.3331 40.8166 14.1255 41.3148 13.2049 42.3112C12.2952 43.3076 11.8403 44.6181 11.8403 46.2427C11.8403 47.8673 12.2952 49.1778 13.2049 50.1742Z" fill="white"/>
<path d="M34.0728 40.7191H33.8453C33.5204 40.7191 33.2117 40.8112 32.9193 40.9953C32.6377 41.1686 32.3994 41.3906 32.2045 41.6614L29.004 46.86V50.7428C29.004 51.0244 29.1015 51.2681 29.2965 51.4739C29.5023 51.6688 29.7514 51.7663 30.0438 51.7663H30.2387V51.9287H26.6971V51.7663H26.9083C27.1899 51.7663 27.4282 51.6688 27.6231 51.4739C27.8289 51.2789 27.9372 51.0406 27.9481 50.759V46.8438L24.8451 41.6614C24.6826 41.4014 24.4498 41.1794 24.1465 40.9953C23.8541 40.8112 23.5454 40.7191 23.2205 40.7191H22.9931V40.5566H26.9896V40.7191H26.7784C26.5401 40.7191 26.356 40.8274 26.226 41.044C26.161 41.1631 26.1285 41.2823 26.1285 41.4014C26.1285 41.5097 26.1556 41.618 26.2098 41.7263L28.6466 46.2752L31.246 41.7101C31.3001 41.6018 31.3272 41.4935 31.3272 41.3852C31.3272 41.2769 31.2893 41.1631 31.2135 41.044C31.0835 40.8274 30.8994 40.7191 30.6611 40.7191H30.4662V40.5566H34.0728V40.7191Z" fill="white"/>
<path d="M43.8938 51.7663H44.0237V51.9287H40.3684V51.7663H40.5146C40.7421 51.7663 40.9099 51.6959 41.0182 51.5551C41.1374 51.4035 41.197 51.2627 41.197 51.1327C41.197 51.0027 41.1753 50.8728 41.132 50.7428L40.0922 47.981H35.7058L34.6174 50.759C34.5741 50.889 34.5524 51.019 34.5524 51.1489C34.5524 51.2681 34.6065 51.4035 34.7149 51.5551C34.834 51.6959 35.0073 51.7663 35.2347 51.7663H35.3809V51.9287H32.1155V51.7663H32.2617C32.5325 51.7663 32.7978 51.6796 33.0578 51.5064C33.3177 51.3331 33.5289 51.0785 33.6914 50.7428L37.3629 42.0025C37.7637 41.1252 37.964 40.5675 37.964 40.3292H38.1102L42.4641 50.7428C42.6158 51.0785 42.8215 51.3331 43.0815 51.5064C43.3414 51.6796 43.6122 51.7663 43.8938 51.7663ZM35.9008 47.4936H39.8973L37.9478 42.2787L35.9008 47.4936Z" fill="white"/>
<path d="M45.0133 51.7663C45.2949 51.7663 45.5332 51.6688 45.7282 51.4739C45.9339 51.2681 46.0422 51.0244 46.0531 50.7428V41.7426C46.0422 41.461 45.9339 41.2227 45.7282 41.0278C45.5332 40.822 45.2949 40.7191 45.0133 40.7191H44.8021V40.5566H48.36V40.7191H48.1488C47.7589 40.7191 47.461 40.887 47.2553 41.2227C47.1578 41.3852 47.1091 41.5585 47.1091 41.7426V51.4251H49.4322C50.2337 51.4251 50.8456 51.2464 51.268 50.889C51.6904 50.5316 52.0424 50.0009 52.324 49.2969H52.4864L51.5442 51.9287H44.8021V51.7663H45.0133Z" fill="white"/>
<path d="M6.8924 58.9922V62.0314H8.27097C8.52859 62.0244 8.74094 61.9374 8.90804 61.7703C9.07514 61.6032 9.1587 61.3908 9.1587 61.1332V61.0392H9.26313V63.4517H9.1587V63.3682C9.1587 63.1106 9.07514 62.8982 8.90804 62.7311C8.74791 62.564 8.54251 62.477 8.29186 62.47H6.8924V65.0914C6.8924 65.2724 6.95854 65.4291 7.09083 65.5614C7.22312 65.6867 7.37977 65.7493 7.5608 65.7493H7.68612L7.69657 65.8538H4.52166V65.7493H4.65743C4.83845 65.7493 4.99163 65.6867 5.11695 65.5614C5.24924 65.4291 5.31887 65.2724 5.32583 65.0914V59.2742C5.32583 59.0305 5.21095 58.8495 4.98119 58.7311C4.88371 58.6754 4.77579 58.6476 4.65743 58.6476H4.52166V58.5431H8.52163C8.73746 58.5431 8.97419 58.5223 9.2318 58.4805C9.48941 58.4387 9.67044 58.3969 9.77488 58.3552V60.1202H9.67044V60.0157C9.67044 59.7094 9.57993 59.4657 9.3989 59.2847C9.22484 59.0967 8.98463 58.9992 8.67828 58.9922H6.8924Z" fill="#51AC18"/>
<path d="M10.8686 65.7493C11.0496 65.7493 11.2028 65.6867 11.3281 65.5614C11.4604 65.4291 11.5301 65.2724 11.537 65.0914V59.2951C11.5301 59.1141 11.4604 58.9609 11.3281 58.8356C11.2028 58.7102 11.0496 58.6476 10.8686 58.6476H10.7328V58.5431H13.9078L13.8973 58.6476H13.772C13.591 58.6476 13.4343 58.7102 13.302 58.8356C13.1697 58.9609 13.1036 59.1141 13.1036 59.2951V65.0914C13.1036 65.2724 13.1697 65.4291 13.302 65.5614C13.4343 65.6867 13.591 65.7493 13.772 65.7493H13.8973L13.9078 65.8538H10.7328V65.7493H10.8686Z" fill="#51AC18"/>
<path d="M18.5943 58.9713V65.1018C18.6013 65.2829 18.6674 65.436 18.7927 65.5614C18.925 65.6867 19.0817 65.7493 19.2627 65.7493H19.388L19.3985 65.8538H16.2236V65.7493H16.3594C16.5334 65.7493 16.6831 65.6867 16.8084 65.5614C16.9407 65.436 17.0138 65.2863 17.0278 65.1123V58.9713H15.6178C15.2976 58.9783 15.0434 59.0793 14.8554 59.2742C14.6675 59.4692 14.5735 59.7233 14.5735 60.0366V60.1619H14.469V58.3447C14.7545 58.4631 15.1653 58.5257 15.7014 58.5327H19.9102C20.1261 58.5327 20.3593 58.5118 20.61 58.47C20.8676 58.4283 21.0451 58.3865 21.1426 58.3447V60.1619H21.0382V60.0366C21.0382 59.6049 20.8745 59.2986 20.5473 59.1176C20.3941 59.027 20.2096 58.9783 19.9938 58.9713H18.5943Z" fill="#51AC18"/>
<path d="M29.8111 58.6476C29.5674 58.6476 29.3829 58.752 29.2576 58.9609C29.2019 59.0514 29.1705 59.1558 29.1636 59.2742V64.6632C29.1636 65.1297 29.1949 65.5231 29.2576 65.8433L29.2889 66H29.1949L23.9208 60.9765V65.1227C23.9208 65.2968 23.9835 65.4465 24.1088 65.5718C24.2341 65.6902 24.3838 65.7493 24.5579 65.7493H24.7563V65.8538H21.5918V65.7493H21.7798C21.9609 65.7493 22.114 65.6902 22.2394 65.5718C22.3647 65.4465 22.4273 65.2933 22.4273 65.1123V59.692C22.4273 59.2324 22.396 58.8495 22.3334 58.5431L22.3125 58.3865H22.4065L27.6806 63.4099V59.2847C27.6736 59.1036 27.6075 58.9539 27.4821 58.8356C27.3568 58.7102 27.2071 58.6476 27.033 58.6476H26.8451V58.5431H30.0095V58.6476H29.8111Z" fill="#51AC18"/>
<path d="M30.7261 65.7493C30.9071 65.7493 31.0603 65.6867 31.1856 65.5614C31.3179 65.4291 31.3875 65.2724 31.3945 65.0914V59.2742C31.3805 59.0932 31.3283 58.9609 31.2378 58.8773C31.0707 58.7242 30.9001 58.6476 30.7261 58.6476H30.5903V58.5431H34.5903C34.9314 58.5431 35.2134 58.5188 35.4362 58.47C35.659 58.4143 35.7948 58.376 35.8435 58.3552V60.1828L35.7391 60.1724V60.0575C35.7391 59.6258 35.5789 59.3195 35.2587 59.1384C35.1055 59.0479 34.9245 58.9992 34.7156 58.9922H32.961V62.0314H34.3396C34.5972 62.0244 34.8096 61.9374 34.9767 61.7703C35.1438 61.5962 35.2273 61.3838 35.2273 61.1332V61.0392H35.3318V63.4517H35.2273V63.3682C35.2273 63.1106 35.1438 62.8982 34.9767 62.7311C34.8165 62.564 34.6111 62.477 34.3605 62.47H32.961V65.4047H34.3292C34.8374 65.4047 35.2621 65.2585 35.6033 64.9661C35.9514 64.6736 36.209 64.2594 36.3761 63.7233H36.4806L36.0002 65.8538H30.5903V65.7493H30.7261Z" fill="#51AC18"/>
<path d="M37.2624 64.8825C37.2624 64.3812 37.3703 63.953 37.5862 63.5979H37.6801C37.6732 63.6536 37.6697 63.7093 37.6697 63.765C37.6697 64.2454 37.8403 64.6667 38.1814 65.0287C38.5296 65.3838 39.003 65.5614 39.6018 65.5614C40.0683 65.5614 40.4303 65.45 40.688 65.2272C40.9525 65.0044 41.0848 64.7224 41.0848 64.3812C41.0848 64.1793 41.0187 63.9983 40.8864 63.8381C40.7611 63.678 40.5487 63.5005 40.2493 63.3055L38.4321 62.1045C37.7567 61.6519 37.4191 61.0949 37.4191 60.4335C37.4191 60.3638 37.426 60.2942 37.4399 60.2246C37.4817 59.6746 37.6941 59.2324 38.077 58.8982C38.4669 58.564 38.9856 58.3969 39.6331 58.3969C40.0161 58.3969 40.4895 58.4317 41.0535 58.5014H41.7114L41.5757 60.0366H41.4712C41.4712 59.6746 41.3355 59.3856 41.0639 59.1698C40.7994 58.947 40.4443 58.8356 39.9987 58.8356C39.4556 58.8356 39.0622 59.0027 38.8185 59.3369C38.6932 59.497 38.6305 59.6571 38.6305 59.8173C38.6305 59.9774 38.6619 60.1132 38.7245 60.2246C38.822 60.4056 39.0344 60.6006 39.3616 60.8094L41.3564 62.1045C41.983 62.5153 42.2963 63.0514 42.2963 63.7128C42.2963 64.4508 42.0422 65.0183 41.5339 65.4151C41.0326 65.805 40.3642 66 39.5287 66C39.0552 66 38.6166 65.9443 38.2128 65.8329C37.8159 65.7145 37.5235 65.5579 37.3355 65.3629C37.2868 65.2306 37.2624 65.0705 37.2624 64.8825Z" fill="#51AC18"/>
<path d="M43.3002 64.8825C43.3002 64.3812 43.4081 63.953 43.624 63.5979H43.718C43.711 63.6536 43.7075 63.7093 43.7075 63.765C43.7075 64.2454 43.8781 64.6667 44.2193 65.0287C44.5674 65.3838 45.0408 65.5614 45.6396 65.5614C46.1061 65.5614 46.4681 65.45 46.7258 65.2272C46.9903 65.0044 47.1226 64.7224 47.1226 64.3812C47.1226 64.1793 47.0565 63.9983 46.9242 63.8381C46.7989 63.678 46.5865 63.5005 46.2871 63.3055L44.4699 62.1045C43.7945 61.6519 43.4569 61.0949 43.4569 60.4335C43.4569 60.3638 43.4638 60.2942 43.4777 60.2246C43.5195 59.6746 43.7319 59.2324 44.1148 58.8982C44.5047 58.564 45.0234 58.3969 45.6709 58.3969C46.0539 58.3969 46.5273 58.4317 47.0913 58.5014H47.7492L47.6135 60.0366H47.509C47.509 59.6746 47.3733 59.3856 47.1017 59.1698C46.8372 58.947 46.4821 58.8356 46.0365 58.8356C45.4934 58.8356 45.1 59.0027 44.8563 59.3369C44.731 59.497 44.6683 59.6571 44.6683 59.8173C44.6683 59.9774 44.6997 60.1132 44.7623 60.2246C44.8598 60.4056 45.0722 60.6006 45.3994 60.8094L47.3942 62.1045C48.0208 62.5153 48.3341 63.0514 48.3341 63.7128C48.3341 64.4508 48.08 65.0183 47.5717 65.4151C47.0704 65.805 46.402 66 45.5665 66C45.0931 66 44.6544 65.9443 44.2506 65.8329C43.8537 65.7145 43.5613 65.5579 43.3733 65.3629C43.3246 65.2306 43.3002 65.0705 43.3002 64.8825Z" fill="#51AC18"/>
<path d="M50.093 62.3725H52.4138V62.6626H50.093V62.3725Z" fill="white"/>
<path d="M0.485046 62.3725H2.80588V62.6626H0.485046V62.3725Z" fill="white"/>
<path d="M14.2443 17.6431L14.2306 17.698C14.2484 17.6966 14.2676 17.713 14.2854 17.7117C14.2648 17.6774 14.2634 17.6596 14.2443 17.6431ZM14.1772 17.9352C14.1786 17.953 14.1786 17.953 14.1772 17.9352V17.9352Z" fill="#51AC18"/>
<path d="M41.3101 19.6031C42.0112 18.2392 42.456 16.8054 42.1745 15.2484C42.1086 14.8588 41.9536 14.4761 41.7836 14.1305C41.6136 13.7848 41.3558 13.4639 41.1502 13.121C41.0679 12.9838 41.0034 12.8453 40.9047 12.7274C40.4496 12.1705 39.8616 11.7496 39.2914 11.3273C39.0639 11.1655 38.783 11.0078 38.6226 10.787C37.9137 9.72955 37.157 8.74757 36.1975 7.9248C36.044 7.79315 36.0179 7.68753 36.111 7.50092C36.5984 6.38677 36.5514 5.31398 35.8111 4.31278C35.5904 4.00693 35.3382 3.75735 34.9613 3.51741C35.3658 4.34724 35.2784 5.07163 34.7004 5.7084C34.6921 5.60139 34.6839 5.49439 34.6934 5.38601C34.774 4.57245 34.6284 3.84815 34.0774 3.20906C33.6044 2.65363 32.9863 2.30677 32.4011 1.92149C32.0804 1.71309 31.7418 1.50606 31.4691 1.22218C31.1579 0.905394 31.018 0.485651 31.0342 0C30.7602 0.164727 30.5411 0.343153 30.4535 0.601099C30.3481 0.860423 30.3153 1.13207 30.2469 1.40647C30.2469 1.40647 30.229 1.40785 30.2099 1.39139C29.626 1.02395 28.9723 0.913067 28.3187 0.802188C27.5212 0.684503 26.7387 0.529772 25.9562 0.375041C25.6643 0.307927 25.3875 0.203767 25.0381 0.0872877C25.2177 0.557775 25.3755 0.97614 25.5332 1.3945C25.4976 1.39726 25.4619 1.40002 25.4263 1.40278C25.1016 1.37409 24.7919 1.30835 24.4712 1.33316C24.0067 1.35117 23.5258 1.38839 23.0682 1.49557C22.3982 1.63712 21.7776 1.95426 21.1583 2.28923C19.7637 3.02507 18.3032 3.60455 16.7234 3.79857C16.0493 3.88662 15.3518 3.90472 14.6899 3.68683C14.5433 3.64436 14.3966 3.60189 14.2308 3.54296C14.4438 5.14112 15.528 5.95424 16.9176 6.54637C16.6779 6.69051 16.5066 6.79346 16.319 6.91563C15.2956 7.58686 14.4656 8.44048 13.8877 9.54368C13.4523 10.4026 13.1813 11.3027 13.0748 12.2438C12.9901 13.0039 12.9247 13.7804 12.8948 14.5542C12.8569 15.6873 12.8902 16.815 12.6179 17.9305C12.4701 18.5698 12.2114 19.1639 11.6675 19.5469C11.3456 19.7871 10.9826 19.9587 10.6387 20.1468C10.6757 20.1618 10.7333 20.2112 10.8073 20.2414C11.7804 20.776 12.8095 20.8758 13.8617 20.5791C14.0891 20.5077 14.3152 20.4184 14.5426 20.347C14.6646 20.3017 14.7029 20.3346 14.7304 20.458C14.9567 21.0684 15.1652 21.6802 15.4436 22.2687C15.7864 22.9956 16.1813 23.7006 16.5926 24.3864C16.9436 24.9872 17.3303 25.5852 17.7183 26.201L17.7197 26.2188L18.0665 26.7661L18.0679 26.7839C18.5588 27.5712 19.0154 28.379 19.2993 29.272C19.5339 29.9894 19.6424 30.6987 19.4481 31.4313C19.3783 31.6879 19.2894 31.928 19.1894 32.2587C19.6059 32.0829 19.9717 31.9469 20.3156 31.7589C21.2965 31.2344 22.176 30.5564 22.9183 29.7275C22.9512 29.6891 23.0019 29.6493 23.0553 29.6452C23.1622 29.6369 23.5159 30.0401 23.5241 30.1471C23.5283 30.4338 23.5326 30.7205 23.5012 31.01C23.3988 32.0047 23.1703 32.9911 22.8856 33.9461C22.772 34.3316 22.6749 34.6979 22.5449 35.1027C22.5805 35.0999 22.6326 35.078 22.6668 35.0574C22.9627 34.9448 23.371 34.662 23.371 34.662C24.5204 33.999 25.6684 33.3181 26.6944 32.4493C26.7506 32.4808 26.7876 32.4959 26.8259 32.5288C27.9567 33.2486 29.1052 33.9671 30.2359 34.6869C30.3867 34.7829 30.4744 34.7581 30.5922 34.6593C31.4319 33.9305 32.3086 33.2168 33.1291 32.4716C34.5851 31.139 35.9631 29.7227 37.2067 28.1912C37.4026 27.9428 37.5778 27.6601 37.834 27.4968C38.5683 27.0273 39.1847 26.4235 39.6846 25.703C39.7489 25.6084 39.8517 25.5466 39.9366 25.4862C40.2421 25.2652 40.5695 25.0963 40.8366 24.8425C42.1886 23.5538 42.2824 21.5192 41.3021 19.9625C41.2568 19.8404 41.2485 19.7334 41.3101 19.6031ZM40.4133 14.0212C40.7011 14.2681 40.8835 14.541 40.9946 14.8194C41.3443 15.6356 41.3378 16.4793 41.0791 17.3066C40.893 17.9131 40.6506 18.488 40.4097 19.0807C40.3796 19.1548 40.3316 19.2303 40.2673 19.325C40.0932 19.159 39.9383 19.0096 39.8012 18.8587C39.6655 18.7257 39.5298 18.5927 39.4105 18.4404C39.3516 18.3732 39.3242 18.2498 39.3543 18.1757C39.6774 17.4869 39.732 16.8009 39.4261 16.089C40.0864 15.5894 40.5589 14.9787 40.4133 14.0212ZM37.3907 10.8465C37.1085 10.9042 36.8619 10.9591 36.6152 11.0141C37.2703 11.376 37.9241 11.7201 38.5463 12.1205C39.1686 12.5209 39.7579 12.9596 40.235 13.5686C39.9885 13.8568 39.6391 13.9735 39.3007 13.9997C38.7485 14.0424 38.1908 14.0138 37.6331 13.9852C36.9493 13.9484 36.2669 13.9295 35.5818 14.1081C35.5764 14.27 35.6573 14.3893 35.8067 14.4674C36.1973 14.6525 36.5879 14.8375 36.9771 15.0048C37.5897 15.2803 38.2037 15.5736 38.6725 16.0756C39.4908 16.9272 39.2447 18.3815 38.3461 19.0431C37.8022 19.426 37.1912 19.6348 36.5554 19.7557C35.6374 19.9344 34.6975 20.061 33.7767 19.9708C33.2176 19.9244 32.6859 19.7682 32.1213 19.6504C32.0665 19.6367 32.0281 19.6038 31.9719 19.5722C33.2269 19.1163 34.4476 18.681 35.6848 18.2264C35.6834 18.2086 35.6806 18.1729 35.6614 18.1565C33.9075 18.1846 32.162 18.5529 30.4163 18.688C31.6587 17.6051 33.174 17.0393 34.6468 16.3871C34.1028 16.3036 33.5506 16.3464 33.0203 16.4412C32.2942 16.5513 31.5913 16.7312 30.9337 17.0333C30.4322 17.2694 29.9706 17.5563 29.4911 17.8446C29.1486 18.0505 28.8253 18.2729 28.4087 18.2154C27.7949 18.1553 27.474 17.7137 27.2382 17.2116C26.7609 16.1363 26.7276 15.0086 26.8354 13.8521C26.9091 12.9493 27.1308 12.1069 27.5703 11.3015C27.6799 11.0956 27.8264 10.9049 27.9702 10.6785C27.8894 10.7924 28.7802 11.1899 28.8734 11.2365C29.2448 11.4051 29.5956 11.5394 30.0122 11.5969C30.411 11.6557 30.8097 11.7146 31.2058 11.7377C31.6552 11.7568 32.0855 11.7594 32.5253 11.6536C32.8952 11.5711 33.246 11.4722 33.6159 11.3897C33.6337 11.3884 33.6515 11.387 33.6515 11.387C33.8447 11.3362 34.0187 11.2689 34.1927 11.2016C34.2105 11.2002 34.172 10.9341 34.2214 10.8764C33.5115 10.734 32.6083 10.176 31.8739 10.179C30.7448 10.1767 30.4902 11.0575 28.9225 10.4792C28.3866 10.2695 27.7918 9.9926 27.2902 9.76231C26.3048 9.30035 25.2893 8.91249 24.2287 8.63577C24.0628 8.57684 23.8792 8.51929 23.6778 8.46311C24.1051 7.96359 25.874 7.66524 27.7978 7.74958C27.1358 7.29847 26.4136 6.99556 25.6955 6.74614C27.041 6.53437 28.3729 6.6107 29.7158 6.8297C31.0423 7.06792 32.3278 7.47077 33.4955 8.20566C33.5529 7.78859 33.3486 7.46353 33.2279 7.06024C34.8986 8.04326 36.3172 9.24312 37.3907 10.8465ZM31.0966 1.96862C31.1734 2.03444 31.2488 2.08243 31.3077 2.14963C31.8628 2.60901 32.4358 3.067 32.9744 3.54559C33.4364 3.95835 33.7449 4.47269 33.741 5.11884C33.7507 5.4769 33.6714 5.84185 33.5044 6.23153C33.3864 5.86391 33.289 5.53058 33.1696 5.14512C32.9985 5.4813 32.8424 5.78042 32.6712 6.1166C32.6479 6.04664 32.6273 6.01235 32.6246 5.97668C32.6489 5.1316 32.291 4.44168 31.8098 3.77924C31.511 3.38974 31.2121 3.00023 31.1023 2.5064C31.0721 2.34727 31.0583 2.16893 31.0281 2.0098C31.0446 1.99059 31.0788 1.97 31.0966 1.96862ZM28.2675 3.15635C28.1797 2.94786 28.1125 2.77365 28.0453 2.59945L27.952 2.31962C28.0219 2.29627 28.0945 2.30859 28.1685 2.33875C28.762 2.59781 29.3704 2.81983 29.9323 3.13515C30.8698 3.67258 31.573 4.42548 31.9735 5.43503C32.1271 5.7999 32.1944 6.20732 32.2946 6.57632C32.2973 6.61199 32.2823 6.64903 32.2878 6.72037C31.3501 5.48328 30.2069 4.60296 28.7022 4.14531C28.9189 4.63088 29.0424 5.06983 28.9193 5.56376C28.6465 5.27988 28.3943 5.03029 28.142 4.7807C27.2127 3.88384 26.145 3.28473 24.8747 3.07804C24.2033 2.96854 23.5003 2.9153 22.8138 2.84285C22.759 2.82915 22.7055 2.83329 22.6137 2.80451C24.1236 2.40062 25.924 2.046 28.2675 3.15635ZM20.2945 4.56275C21.155 4.3347 22.0168 4.12448 22.9019 3.98422C23.8583 3.83844 24.7997 3.96293 25.6481 4.50725C26.1758 4.84317 26.5692 5.29711 26.864 5.86633C25.8704 5.29737 24.8822 4.79975 23.7134 4.74668C23.8916 4.96612 24.0849 5.1485 24.211 5.38991C24.3358 5.61348 24.4099 5.87685 24.5018 6.13884C24.4854 6.15806 24.4675 6.15944 24.4511 6.17865C24.2483 6.10464 24.0455 6.03064 23.8426 5.95663C23.3822 5.79492 22.8957 5.7608 22.4134 5.78019C21.716 5.79828 21.0213 5.85205 20.3416 5.86876C19.4304 5.9034 18.6054 5.66225 17.8475 5.12887C17.8091 5.09596 17.7885 5.06167 17.7296 4.99447C18.6271 5.01472 19.4519 4.78942 20.2945 4.56275ZM17.6261 10.3846C17.6449 9.4682 17.92 8.62165 18.5282 7.91079C19.0856 7.23973 19.8048 6.80733 20.6461 6.56282C21.9614 6.19192 23.2139 6.39998 24.4226 6.97023C24.4596 6.98531 24.4966 7.00039 24.5158 7.01684C24.535 7.0333 24.5364 7.05113 24.557 7.08542C23.7293 7.04183 22.903 7.01607 22.0919 7.18649C21.2808 7.3569 20.493 7.59727 19.856 8.16684C20.6946 8.11988 21.5099 8.23619 22.3692 8.45674C21.6321 8.89053 21.0047 9.35171 20.4254 9.97065C20.9433 9.9485 21.427 9.94695 21.8915 9.92895C21.9107 9.9454 21.9135 9.98107 21.9326 9.99752C19.878 11.9326 18.8471 14.3626 18.559 17.1298C18.3835 16.946 18.2996 16.0914 18.3399 13.8278C18.3614 12.7138 18.5816 11.6203 18.9429 10.498C18.4073 10.7547 18.021 11.0896 17.68 11.5466C17.6867 11.1693 17.6208 10.7797 17.6261 10.3846ZM21.5863 25.7043C21.6209 26.6166 21.4376 27.4919 21.1269 28.3412C21.1283 28.3591 21.094 28.3796 21.0433 28.4194C21.0392 28.3659 21.0186 28.3317 21.0159 28.296C20.9566 27.2959 20.6863 26.348 20.2598 25.4661C19.8978 24.7227 19.3988 24.0616 18.9012 23.4184C18.2253 22.5557 17.533 21.7123 16.9092 20.8276C16.4266 20.1474 16.1002 19.4012 15.8766 18.5932C15.7531 18.1543 15.6474 17.7139 15.5226 17.2571C14.9966 17.8719 14.6242 18.6184 13.8145 19.0399C13.9473 18.6708 14.0664 18.3566 14.1855 18.0424C14.1841 18.0245 14.2006 18.0053 14.1992 17.9875L14.1978 17.9696L14.2498 17.7145L14.2635 17.6596L14.444 16.7486L14.4618 16.7472C14.53 15.7731 14.5981 14.7991 14.6663 13.825C14.7672 12.5793 15.0312 11.3569 15.6255 10.2345C15.9842 9.5429 16.4554 8.91441 16.9841 8.33528C17.0169 8.29685 17.069 8.27488 17.1539 8.21449C16.6638 9.29297 16.46 10.3672 16.4015 11.4661C16.3416 12.5472 16.3187 13.6433 16.5986 14.716L16.6961 15.2826C16.6989 15.3182 16.703 15.3717 16.7058 15.4074C16.7881 15.7778 16.8883 16.1468 17.0063 16.5144C17.2944 17.4609 17.6866 18.3634 18.1665 19.2413C18.3105 19.4813 18.4531 19.7035 18.6354 19.9764C18.8076 18.7252 19.436 17.349 19.8196 16.9784C19.806 17.2665 19.8061 17.4997 19.7897 17.7522C19.7585 18.5081 19.8341 19.2557 19.9974 19.9787C20.2212 21.0198 20.6367 21.9923 20.9988 22.969C21.2636 23.8455 21.5476 24.7385 21.5863 25.7043ZM28.2907 28.7556C28.3439 28.0518 28.3258 27.3535 28.183 26.6649C28.0225 25.9776 27.792 25.3137 27.4013 24.6622C27.3767 25.0409 27.3659 25.3647 27.3372 25.6898C27.1994 27.1537 26.8779 28.5599 26.1549 29.8717C25.8413 30.4522 25.4332 30.9681 24.9305 31.4197C24.8962 31.4403 24.862 31.4608 24.8113 31.5007C24.8633 31.2455 24.9166 31.0081 24.97 30.7708C25.1848 29.8392 25.2022 28.9049 24.9689 27.9721C24.785 27.2149 24.4271 26.525 23.9829 25.8776C23.4976 25.1617 22.9972 24.4828 22.5461 23.7463C21.9525 22.7875 21.5848 21.7396 21.6214 20.5885C21.6173 20.535 21.6323 20.498 21.6282 20.4445C21.6268 20.4267 21.6433 20.4074 21.6597 20.3882C22.3481 21.8778 23.4215 23.0147 24.7633 23.9156C24.7797 23.8963 24.7975 23.895 24.8139 23.8757C24.6892 23.6522 24.5644 23.4286 24.4561 23.1858C23.9912 22.271 23.5442 21.3547 23.2355 20.3739C22.994 19.5674 22.7334 18.7443 22.5618 17.9144C22.3586 16.9075 22.2952 15.8539 22.3935 14.8058C22.4945 13.7933 22.7599 12.8219 23.2282 11.9245C23.5089 11.3825 23.8308 10.9091 24.2636 10.4809C24.1843 10.8459 24.0885 11.23 24.0283 11.6114C23.8273 12.7214 23.7866 13.8189 23.9446 14.9369C24.1919 16.5145 24.8706 17.8792 25.7769 19.1726C26.3993 20.0394 27.0395 20.9048 27.6455 21.7908C28.1692 22.5397 28.5723 23.3517 28.7837 24.2323C28.9895 25.0417 29.0159 25.847 28.8833 26.6825C28.7753 27.3726 28.5741 28.0161 28.3551 28.6609C28.3564 28.6788 28.3236 28.7172 28.2907 28.7556ZM36.3288 25.6398C36.2031 26.5645 35.78 27.3508 35.2075 28.0589C34.8322 28.5364 34.3802 28.9481 33.8664 29.257C33.8322 29.2776 33.7801 29.2996 33.7102 29.3229C33.8988 27.8193 33.7133 26.3446 33.5277 24.8699C32.9407 27.0143 31.9959 28.9353 30.3207 30.4464C29.9179 30.8005 29.4577 31.1052 29.0152 31.4085C31.0321 27.5926 30.9061 23.8707 28.7561 20.162C30.5253 20.5633 31.4863 21.8703 32.2474 23.3722C32.5898 22.9331 32.9349 22.5297 33.413 22.2236C33.472 22.524 33.5311 22.8244 33.6052 23.0878C33.8041 23.8079 34.2579 24.3469 34.8459 24.7679C35.2447 25.0599 35.6915 25.2765 36.1835 25.382C36.3493 25.4409 36.3562 25.5301 36.3288 25.6398ZM39.8978 24.2872C39.8814 24.3064 39.8457 24.3092 39.7772 24.3503C39.8949 23.7851 39.8892 23.2473 39.6327 22.711C39.5621 24.3491 38.7596 25.5593 37.4527 26.5037C37.4156 26.2554 37.3635 26.0441 37.3305 25.8493C37.2248 25.1758 36.8478 24.7026 36.2817 24.3338C35.8294 24.0459 35.41 23.7195 35.1235 23.2573C34.9987 23.0337 34.9424 22.769 34.8697 22.5235C34.845 22.4357 34.8189 22.33 34.7915 22.2066C35.0366 21.9006 35.2777 21.541 35.5776 21.2487C35.8776 20.9564 36.2557 20.7477 36.6119 20.4869C36.8023 20.4004 38.2723 19.7126 38.6765 19.6095C38.6943 19.6082 38.7122 19.6068 38.73 19.6054C38.9245 19.5724 39.1163 19.5037 39.3095 19.4529C39.4835 19.3856 39.5781 19.4501 39.6946 19.5666C40.1401 19.9986 40.5007 20.491 40.742 21.0643C41.2234 22.1932 40.9512 23.5419 39.8978 24.2872Z" fill="#51AC18"/>
</svg>
